<svg width="360" height="259" viewBox="0 0 360 259" fill="none" xmlns="http://www.w3.org/2000/svg">
<path d="M320.136 77.8399L315.542 101.849L312.586 98.736L307.555 102.611L303.71 97.4565L295.09 104.222L287.722 90.9245L279.504 96.1201L276.245 91.2716L265.81 97.6171L262.67 90.3599L269.986 52.1263L309.202 60.865L320.136 77.8399Z" fill="#EBEBEB"/>
<path d="M309.202 60.865L320.136 77.8399L306.533 74.8096L309.202 60.865Z" fill="#DBDBDB"/>
<path d="M314.563 106.646L307.829 141.87L255.005 130.101L261.691 95.1618L264.83 102.414L275.27 96.0683L278.525 100.917L286.747 95.7264L294.11 109.023L302.736 102.258L306.576 107.407L311.611 103.538L314.563 106.646Z" fill="#EBEBEB"/>
<path d="M238.958 102.517L185.126 106.112L180.85 31.541L220.824 28.8681L235.498 42.1548L238.958 102.517Z" fill="#EBEBEB"/>
<path d="M220.824 28.8681L235.497 42.1548L221.635 43.0821L220.824 28.8681Z" fill="#DBDBDB"/>
<path d="M205.92 79.0468L205.709 77.3633C205.167 73.8772 206.05 69.9766 208.858 65.9C211.392 62.274 212.765 59.684 212.611 56.7417C212.439 53.4265 210.399 51.3338 206.602 51.4996C204.432 51.6212 202.348 52.4522 200.626 53.8824L198.97 49.8782C200.89 48.1947 204.25 46.9515 207.442 46.7702C214.368 46.3558 217.738 50.7795 218.002 55.7161C218.232 60.1346 216.111 63.455 213.413 67.3348C210.936 70.8728 210.125 73.7891 210.475 77.0888L210.624 78.7774L205.92 79.0468ZM205.066 88.2206C204.941 85.8171 206.357 84.0351 208.464 83.9108C210.571 83.7865 212.107 85.3819 212.232 87.7906C212.347 90.0647 211.056 91.8984 208.829 92.0331C206.703 92.1626 205.167 90.4946 205.047 88.2206H205.066Z" fill="#DBDBDB"/>
<path d="M71.2704 66.361L65.856 63.714L65.1024 65.5011C64.9911 65.7565 64.8175 65.9744 64.6002 66.1313C64.3829 66.2883 64.13 66.3784 63.8688 66.3921C63.5713 66.4026 63.2747 66.4337 62.9808 66.4853C62.7229 66.5266 62.4594 66.4916 62.2184 66.384C61.9775 66.2763 61.7682 66.1001 61.6128 65.8741L60.552 64.2734L55.7184 68.0134L56.7792 69.614C56.9268 69.8451 57.0136 70.1149 57.0305 70.3949C57.0474 70.6749 56.9937 70.9546 56.8752 71.2043C56.7384 71.4892 56.615 71.7813 56.5056 72.0797C56.4105 72.3428 56.2508 72.573 56.0436 72.7455C55.8364 72.918 55.5896 73.0262 55.3296 73.0587L53.52 73.2504L54.1008 79.6373L55.92 79.4405C56.1809 79.418 56.4426 79.4727 56.6768 79.5986C56.9111 79.7246 57.1091 79.917 57.2496 80.1553C57.3264 80.29 57.408 80.4195 57.4944 80.549C57.5808 80.6785 57.6672 80.8028 57.7584 80.9271C57.9241 81.1446 58.0306 81.4074 58.0662 81.6863C58.1018 81.9652 58.065 82.2493 57.96 82.507L57.2016 84.3097L62.6208 86.9618L63.3744 85.1644C63.4867 84.9092 63.6614 84.6919 63.8796 84.5358C64.0978 84.3798 64.3513 84.2908 64.6128 84.2786C64.907 84.2655 65.2003 84.2344 65.4912 84.1854C65.7492 84.144 66.0127 84.1791 66.2536 84.2867C66.4945 84.3944 66.7038 84.5706 66.8592 84.7966L67.92 86.3972L72.7584 82.6573L71.6976 81.0566C71.5455 80.8277 71.4559 80.5574 71.439 80.2763C71.422 79.9952 71.4783 79.7147 71.6016 79.4664C71.7353 79.1831 71.8555 78.8927 71.9616 78.5961C72.0539 78.3311 72.2129 78.0991 72.4206 77.9262C72.6283 77.7532 72.8766 77.6462 73.1376 77.6171L74.9568 77.4203L74.3712 71.0333L72.552 71.225C72.2927 71.2496 72.0322 71.1963 71.7993 71.0711C71.5663 70.9458 71.37 70.7535 71.232 70.5153C71.1504 70.3807 71.0688 70.2512 70.9824 70.1217C70.896 69.9922 70.8096 69.8627 70.7184 69.7435C70.5539 69.5233 70.4482 69.2589 70.4126 68.9787C70.3771 68.6984 70.4131 68.413 70.5168 68.1533L71.2704 66.361ZM68.1984 72.2714C68.7597 73.1167 69.0761 74.1226 69.1076 75.162C69.1391 76.2014 68.8843 77.2275 68.3754 78.1106C67.8664 78.9937 67.1263 79.6941 66.2485 80.1232C65.3707 80.5523 64.3947 80.6908 63.4439 80.5212C62.4931 80.3517 61.6103 79.8816 60.9071 79.1706C60.2039 78.4596 59.7119 77.5394 59.4933 76.5266C59.2747 75.5138 59.3393 74.4537 59.679 73.4805C60.0187 72.5074 60.6181 71.6647 61.4016 71.0592C62.4519 70.2475 63.758 69.9192 65.0326 70.1465C66.3072 70.3738 67.4459 71.1381 68.1984 72.2714Z" fill="#EBEBEB"/>
<path d="M316.022 151.106L312.413 153.354L313.051 154.545C313.147 154.716 313.194 154.913 313.188 155.113C313.182 155.312 313.123 155.505 313.018 155.669C312.907 155.856 312.802 156.048 312.706 156.25C312.627 156.428 312.502 156.579 312.346 156.683C312.191 156.788 312.011 156.842 311.827 156.84H310.56V161.341H311.837C312.02 161.339 312.2 161.393 312.356 161.498C312.512 161.603 312.636 161.753 312.715 161.932C312.811 162.134 312.917 162.326 313.027 162.512C313.133 162.676 313.192 162.869 313.198 163.069C313.204 163.268 313.156 163.465 313.061 163.636L312.422 164.828L316.032 167.076L316.675 165.879C316.768 165.709 316.904 165.571 317.065 165.48C317.227 165.388 317.41 165.347 317.592 165.361H318.206C318.389 165.348 318.571 165.389 318.733 165.48C318.894 165.572 319.03 165.71 319.123 165.879L319.766 167.081L323.371 164.833L322.733 163.636C322.642 163.464 322.598 163.269 322.604 163.071C322.611 162.873 322.669 162.681 322.771 162.517C322.882 162.331 322.987 162.134 323.083 161.937C323.162 161.758 323.287 161.608 323.442 161.503C323.598 161.399 323.778 161.344 323.962 161.347H325.238V156.845H323.952C323.769 156.848 323.588 156.793 323.433 156.689C323.277 156.584 323.153 156.433 323.074 156.255C322.978 156.058 322.872 155.861 322.762 155.675C322.659 155.51 322.602 155.319 322.595 155.121C322.588 154.923 322.632 154.728 322.723 154.556L323.362 153.359L319.757 151.111L319.114 152.292C319.021 152.462 318.885 152.6 318.723 152.692C318.562 152.783 318.379 152.824 318.197 152.81H317.89H317.582C317.4 152.823 317.217 152.782 317.054 152.691C316.892 152.599 316.756 152.461 316.661 152.292L316.022 151.106ZM317.89 155.405C318.566 155.404 319.227 155.62 319.79 156.025C320.353 156.429 320.792 157.005 321.051 157.68C321.31 158.354 321.378 159.096 321.247 159.812C321.115 160.527 320.789 161.185 320.311 161.701C319.833 162.217 319.223 162.569 318.56 162.711C317.897 162.853 317.209 162.78 316.584 162.5C315.96 162.22 315.426 161.746 315.051 161.139C314.676 160.532 314.476 159.818 314.477 159.088C314.476 158.604 314.564 158.125 314.735 157.677C314.907 157.23 315.158 156.823 315.475 156.481C315.792 156.138 316.168 155.866 316.583 155.681C316.997 155.495 317.441 155.4 317.89 155.4V155.405Z" fill="#EBEBEB"/>
<path d="M82.2242 47.2209L78.917 49.9559L79.6802 51.0489C79.794 51.2046 79.864 51.3924 79.8819 51.5898C79.8998 51.7872 79.8647 51.986 79.781 52.1626C79.6891 52.3642 79.609 52.5718 79.541 52.7842C79.4818 52.9713 79.3754 53.1368 79.2338 53.2622C79.0922 53.3876 78.9209 53.4678 78.7394 53.4939L77.4722 53.67L78.0098 58.13L79.277 57.9538C79.4614 57.9261 79.6494 57.9551 79.8192 58.0376C79.9891 58.1201 80.1339 58.2526 80.237 58.42C80.3526 58.6002 80.4776 58.7732 80.6114 58.938C80.735 59.0848 80.817 59.2668 80.8477 59.4624C80.8783 59.6579 80.8563 59.8589 80.7842 60.0414L80.3042 61.3157L84.1442 63.0406L84.6242 61.7663C84.6956 61.5835 84.8131 61.426 84.9632 61.3115C85.1134 61.1971 85.2903 61.1303 85.4738 61.1188L85.781 61.0826L86.0834 61.0308C86.261 60.9946 86.4444 61.0117 86.6137 61.0802C86.7829 61.1487 86.9315 61.266 87.0434 61.4193L87.8258 62.5226L91.133 59.7876L90.3602 58.6946C90.2486 58.5367 90.18 58.3483 90.1622 58.1506C90.1444 57.953 90.178 57.7538 90.2594 57.5757C90.3504 57.3754 90.4305 57.1696 90.4994 56.9593C90.5585 56.7722 90.6649 56.6066 90.8065 56.4813C90.9482 56.3559 91.1194 56.2757 91.301 56.2496L92.5682 56.0735L92.0306 51.6135L90.7634 51.7896C90.5794 51.8179 90.3917 51.7897 90.2219 51.7081C90.0521 51.6266 89.9071 51.4951 89.8034 51.3286C89.6834 51.1421 89.5586 50.966 89.4242 50.8106C89.3124 50.6607 89.24 50.4811 89.2146 50.2906C89.1893 50.1001 89.2119 49.9058 89.2802 49.728L89.7602 48.4537L85.9202 46.7288L85.4402 48.0031C85.3678 48.1852 85.2501 48.3421 85.1002 48.4564C84.9502 48.5707 84.7738 48.6379 84.5906 48.6506L84.2834 48.6816L84.0002 48.692C83.8225 48.7281 83.6391 48.711 83.4699 48.6425C83.3006 48.574 83.152 48.4568 83.0402 48.3035L82.2242 47.2209ZM84.5906 51.225C85.2592 51.1323 85.9383 51.2553 86.5422 51.5786C87.1462 51.9018 87.6478 52.4109 87.984 53.0415C88.3201 53.6721 88.4757 54.396 88.431 55.1219C88.3863 55.8478 88.1435 56.5432 87.733 57.1203C87.3226 57.6974 86.7629 58.1304 86.1247 58.3647C85.4865 58.599 84.7983 58.6241 84.1469 58.4367C83.4955 58.2494 82.9101 57.8581 82.4645 57.3121C82.019 56.7661 81.7333 56.09 81.6434 55.369C81.5834 54.8879 81.6121 54.3987 81.728 53.9296C81.8438 53.4605 82.0445 53.0207 82.3184 52.6356C82.5923 52.2504 82.934 51.9276 83.324 51.6855C83.7139 51.4434 84.1444 51.2869 84.5906 51.225Z" fill="#EBEBEB"/>
<path d="M57.5137 164.092C57.694 159.085 57.6299 154.07 57.3217 149.07C56.6349 138.745 55.1757 128.497 52.9585 118.425C51.7393 112.758 50.2417 107.185 48.6769 101.616C48.6289 101.445 48.3793 101.492 48.4225 101.668C53.2561 121.3 57.2209 141.554 56.9473 161.963C56.8705 167.661 56.2561 173.281 55.7569 178.959C55.7569 179.109 55.9729 179.171 56.0065 179.016C57.0001 174.141 57.3265 169.054 57.5137 164.092Z" fill="#EBEBEB"/>
<path d="M48.4225 101.652C48.4225 101.652 41.1073 121.699 42.7441 126.392C44.3809 131.085 47.7601 132.09 47.7601 132.09C47.7601 132.09 43.2817 138.99 46.4113 145.46C49.5409 151.929 56.4913 151.624 56.9713 158.959C56.9569 158.995 57.3409 128.324 48.4225 101.652Z" fill="#EBEBEB"/>
<path d="M56.1602 146.33C56.172 146.296 56.172 146.26 56.1602 146.226C55.2001 132.54 52.8204 119.013 49.0658 105.9C49.0658 105.864 48.9938 105.874 49.0034 105.9C50.453 111.771 51.733 117.665 52.8434 123.584C51.8599 122.579 50.6585 121.856 49.349 121.481C49.349 121.481 49.3106 121.512 49.349 121.523C50.7246 122.067 51.9615 122.954 52.9586 124.113C53.1698 125.278 53.381 126.439 53.5778 127.604C51.941 125.631 49.6754 124.652 47.405 123.719C47.3998 123.722 47.3955 123.726 47.3924 123.731C47.3893 123.736 47.3877 123.742 47.3877 123.748C47.3877 123.754 47.3893 123.76 47.3924 123.765C47.3955 123.77 47.3998 123.774 47.405 123.776C49.7714 124.812 52.1234 126.149 53.7266 128.35C54.2834 131.676 54.773 135.013 55.1954 138.363C54.0135 137.027 52.4979 136.089 50.8322 135.664C50.7794 135.664 50.7506 135.732 50.8034 135.747C52.5145 136.291 54.0421 137.36 55.2002 138.824H55.229C55.373 139.998 55.5106 141.177 55.6418 142.362C54.7275 141.527 53.6953 140.855 52.5842 140.373C52.5554 140.373 52.5362 140.409 52.5842 140.419C53.718 140.95 54.7563 141.691 55.6514 142.611C55.6514 142.611 55.6754 142.611 55.6898 142.611C55.8098 143.735 55.9298 144.859 56.0354 145.983C54.3871 143.832 52.248 142.183 49.829 141.196C49.8188 141.196 49.809 141.201 49.8018 141.209C49.7946 141.216 49.7906 141.227 49.7906 141.238C49.7906 141.249 49.7946 141.259 49.8018 141.267C49.809 141.275 49.8188 141.279 49.829 141.279C52.2177 142.416 54.3159 144.159 55.9442 146.361C55.9621 146.385 55.9863 146.403 56.0137 146.412C56.041 146.421 56.0703 146.422 56.0978 146.413C56.2562 148.138 56.4002 149.863 56.5154 151.593C56.5154 151.619 56.5538 151.619 56.5538 151.593C56.429 149.856 56.2978 148.101 56.1602 146.33Z" fill="white"/>
<path d="M50.2801 119.508C48.9553 118.618 47.4419 118.108 45.8833 118.026C45.8757 118.026 45.8683 118.03 45.8629 118.035C45.8575 118.041 45.8545 118.049 45.8545 118.057C45.8545 118.066 45.8575 118.074 45.8629 118.079C45.8683 118.085 45.8757 118.088 45.8833 118.088C47.3901 118.397 48.8525 118.919 50.2321 119.642C50.2897 119.658 50.3329 119.549 50.2801 119.508Z" fill="white"/>
<path d="M51.168 140.73C50.1498 140.1 49.0286 139.686 47.8656 139.513C47.8272 139.513 47.8224 139.57 47.8656 139.58C49.0012 139.826 50.0997 140.241 51.1296 140.813C51.1728 140.839 51.2112 140.756 51.168 140.73Z" fill="white"/>
<path d="M76.7518 126.739C73.6572 129.048 70.815 131.727 68.2798 134.727C65.6652 137.902 63.6485 141.597 62.3422 145.605C59.562 153.954 58.067 162.738 57.9166 171.608C57.8234 176.521 58.2599 181.428 59.2174 186.231C59.2252 186.266 59.2451 186.297 59.273 186.316C59.3009 186.336 59.3348 186.343 59.3675 186.336C59.4002 186.33 59.4292 186.31 59.4487 186.28C59.4681 186.251 59.4764 186.215 59.4718 186.18C58.2803 177.703 58.3257 169.078 59.6062 160.616C60.8638 152.328 62.8366 143.305 67.723 136.566C70.3822 132.893 73.699 130.008 76.9774 127.024C77.1502 126.858 76.9294 126.604 76.7518 126.739Z" fill="#EBEBEB"/>
<path d="M58.9922 165.631C60.7537 162.556 62.8238 159.7 65.165 157.115C68.8274 153.162 71.909 150.355 72.389 147.744C72.869 145.133 68.7218 143.206 68.7218 143.206C68.7218 143.206 73.7858 144.19 75.173 141.896C76.5602 139.601 77.2274 126.309 77.2274 126.309C77.2274 126.309 68.0114 133.411 63.7154 143.367C59.4194 153.323 58.9922 165.631 58.9922 165.631Z" fill="#EBEBEB"/>
<path d="M73.92 138.777C73.3131 138.68 72.698 138.657 72.0864 138.71C72.0144 138.71 72.0192 138.845 72.0864 138.85C72.6912 138.85 73.3008 138.819 73.9056 138.85C73.9125 138.848 73.9188 138.844 73.9237 138.838C73.9287 138.833 73.9321 138.826 73.9336 138.818C73.9351 138.811 73.9346 138.803 73.9322 138.796C73.9298 138.789 73.9256 138.782 73.92 138.777Z" fill="white"/>
<path d="M67.3006 151.67C66.3274 151.692 65.3654 151.899 64.459 152.282C64.459 152.282 64.459 152.333 64.459 152.328C65.419 152.085 66.3454 151.986 67.2958 151.81C67.3082 151.804 67.3188 151.795 67.3264 151.783C67.3341 151.771 67.3384 151.757 67.3389 151.742C67.3394 151.727 67.336 151.713 67.3293 151.7C67.3225 151.688 67.3126 151.677 67.3006 151.67Z" fill="white"/>
<path d="M65.3133 147.216C64.9093 147.212 64.5059 147.25 64.1085 147.33C64.1012 147.333 64.0948 147.338 64.0904 147.345C64.0859 147.352 64.0835 147.36 64.0835 147.368C64.0835 147.377 64.0859 147.385 64.0904 147.392C64.0948 147.399 64.1012 147.404 64.1085 147.407C64.5109 147.432 64.9146 147.413 65.3133 147.35C65.3299 147.35 65.3458 147.343 65.3575 147.331C65.3692 147.318 65.3757 147.301 65.3757 147.283C65.3757 147.265 65.3692 147.248 65.3575 147.235C65.3458 147.223 65.3299 147.216 65.3133 147.216Z" fill="white"/>
<path d="M31.9727 140.839C34.9723 141.936 37.8467 143.398 40.5407 145.195C43.3359 147.112 45.7599 149.596 47.6783 152.51C51.7146 158.573 54.805 165.308 56.8271 172.447C57.9549 176.401 58.6508 180.482 58.9007 184.61C58.8955 184.637 58.8819 184.661 58.8622 184.678C58.8425 184.695 58.818 184.704 58.7927 184.704C58.7674 184.704 58.7429 184.695 58.7232 184.678C58.7035 184.661 58.69 184.637 58.6847 184.61C57.8374 177.453 55.9554 170.485 53.1071 163.957C50.3087 157.56 46.7807 150.754 41.3855 146.516C38.4479 144.211 35.1455 142.699 31.8527 141.103C31.6799 141.041 31.7999 140.777 31.9727 140.839Z" fill="#EBEBEB"/>
<path d="M54.6768 167.884C52.5914 165.836 50.3041 164.042 47.856 162.533C44.0448 160.248 40.9488 158.746 40.0032 156.752C39.0576 154.758 42 152.168 42 152.168C42 152.168 38.112 154.24 36.4992 152.712C34.8864 151.183 31.4976 140.616 31.4976 140.616C31.4976 140.616 40.4784 144.061 46.08 151.049C51.6816 158.037 54.6768 167.884 54.6768 167.884Z" fill="#EBEBEB"/>
<path d="M47.2225 158.156C46.3395 158.089 45.453 158.207 44.6113 158.503C44.6113 158.503 44.6113 158.549 44.6113 158.544C45.47 158.385 46.3375 158.288 47.2081 158.254C47.2705 158.254 47.2849 158.161 47.2225 158.156Z" fill="white"/>
<path d="M39.3888 147.071C38.986 147.035 38.5806 147.059 38.184 147.143C38.1408 147.143 38.1552 147.226 38.184 147.221C38.5824 147.174 38.9712 147.19 39.3648 147.179C39.377 147.18 39.389 147.176 39.3988 147.168C39.4085 147.16 39.4154 147.148 39.4183 147.136C39.4211 147.123 39.4197 147.109 39.4143 147.097C39.409 147.086 39.3999 147.076 39.3888 147.071Z" fill="white"/>
<path d="M66.2592 197.969H45.9888L48.8784 175.12L49.6176 169.262H62.6304L63.3696 175.12L66.2592 197.969Z" fill="#DBDBDB"/>
<path d="M63.3696 175.12H48.8784L49.6176 169.262H62.6304L63.3696 175.12Z" fill="#C7C7C7"/>
<path d="M64.4882 167.231H47.7554V172.194H64.4882V167.231Z" fill="#DBDBDB"/>
<path d="M33.1006 197.969L69.5854 197.845L106.07 197.798L179.04 197.71L252.009 197.798L288.494 197.845L324.979 197.969L288.494 198.099L252.009 198.14L179.04 198.228L106.07 198.14L69.5854 198.094L33.1006 197.969Z" fill="#263238"/>
<path d="M180 236.576C256.014 236.576 317.635 229.289 317.635 220.3C317.635 211.311 256.014 204.025 180 204.025C103.986 204.025 42.3647 211.311 42.3647 220.3C42.3647 229.289 103.986 236.576 180 236.576Z" fill="#EBEBEB"/>
<path d="M147.96 217.607C146.842 218.016 114.773 218.125 113.544 217.306C113.064 216.995 112.79 211.955 112.584 205.853C112.541 204.537 112.507 203.175 112.478 201.797L109.92 183.336L131.362 183.186L133.382 201.652L133.301 205.713C133.301 205.713 145.598 211.593 146.856 212.66C148.114 213.727 149.078 217.197 147.96 217.607Z" fill="#EB9481"/>
<path d="M147.96 217.607C146.842 218.016 114.773 218.125 113.544 217.306C112.978 216.923 112.67 209.562 112.498 201.797L133.358 201.652L133.277 205.713C133.277 205.713 145.574 211.593 146.832 212.66C148.09 213.727 149.078 217.197 147.96 217.607Z" fill="white"/>
<path d="M147.96 217.607C146.842 218.016 114.773 218.125 113.544 217.306C113.064 216.995 112.79 211.955 112.584 205.853L133.258 205.713C133.258 205.713 145.555 211.593 146.813 212.66C148.07 213.727 149.078 217.197 147.96 217.607Z" fill="#A6A6A6"/>
<path d="M147.494 216.224C142.118 216.099 120.422 216.156 115.099 216.477C115.056 216.477 115.056 216.508 115.099 216.514C120.427 216.757 142.123 216.514 147.494 216.317C147.61 216.312 147.61 216.224 147.494 216.224Z" fill="#263238"/>
<path d="M144.763 211.422C144.166 211.407 143.572 211.527 143.019 211.773C142.466 212.019 141.967 212.386 141.552 212.851C140.797 213.682 140.37 214.796 140.362 215.959C140.362 215.996 140.419 215.996 140.424 215.959C140.603 214.813 141.12 213.76 141.898 212.957C142.677 212.155 143.675 211.645 144.744 211.505C144.754 211.507 144.765 211.506 144.774 211.5C144.783 211.494 144.79 211.484 144.792 211.474C144.795 211.463 144.793 211.451 144.788 211.441C144.782 211.431 144.774 211.424 144.763 211.422Z" fill="#263238"/>
<path d="M135.36 206.283C133.21 206.257 130.718 207.086 129.384 208.992C129.336 209.065 129.432 209.142 129.494 209.106C131.373 208.036 133.352 207.185 135.398 206.568C135.43 206.559 135.457 206.537 135.475 206.508C135.493 206.478 135.501 206.442 135.496 206.407C135.491 206.372 135.475 206.34 135.45 206.317C135.425 206.295 135.393 206.282 135.36 206.283Z" fill="#263238"/>
<path d="M137.03 206.972C134.875 206.972 132.384 207.78 131.054 209.681C131.002 209.759 131.098 209.837 131.165 209.8C133.041 208.726 135.019 207.874 137.064 207.257C137.095 207.248 137.122 207.227 137.14 207.198C137.158 207.169 137.166 207.133 137.162 207.099C137.158 207.064 137.142 207.032 137.118 207.009C137.094 206.986 137.063 206.973 137.03 206.972Z" fill="#263238"/>
<path d="M138.691 207.666C136.541 207.666 134.05 208.469 132.715 210.375C132.667 210.448 132.763 210.526 132.826 210.489C134.704 209.419 136.684 208.568 138.73 207.951C138.761 207.942 138.789 207.92 138.807 207.891C138.824 207.861 138.832 207.825 138.827 207.79C138.822 207.755 138.806 207.723 138.781 207.7C138.756 207.678 138.724 207.665 138.691 207.666Z" fill="#263238"/>
<path d="M140.357 208.36C138.202 208.334 135.711 209.163 134.381 211.069C134.328 211.142 134.429 211.22 134.491 211.183C136.37 210.112 138.349 209.261 140.395 208.645C140.427 208.636 140.454 208.614 140.472 208.585C140.49 208.555 140.498 208.519 140.493 208.484C140.488 208.449 140.472 208.417 140.447 208.395C140.422 208.372 140.39 208.36 140.357 208.36Z" fill="#263238"/>
<path d="M116.453 210.961C114.053 210.961 114.053 215.027 116.453 215.011C118.853 214.996 118.872 210.945 116.453 210.961Z" fill="#263238"/>
<path d="M137.669 200.077C136.579 199.104 135.206 200.077 134.539 201.077C133.429 202.844 132.767 204.895 132.619 207.024C132.619 207.07 132.653 207.091 132.686 207.091C132.695 207.135 132.713 207.176 132.739 207.211C132.766 207.245 132.799 207.273 132.837 207.291C132.875 207.308 132.917 207.316 132.958 207.313C133 207.31 133.04 207.296 133.075 207.273C134.602 206.128 136.368 205.102 137.525 203.481C138.182 202.538 138.72 200.984 137.669 200.077ZM135.048 205.019C134.309 205.605 133.546 206.148 132.826 206.765C133.21 205.605 133.541 204.434 134.03 203.315C134.257 202.779 134.516 202.259 134.808 201.761C135.288 200.989 137.381 199.041 137.602 201.564C137.726 202.947 135.926 204.325 135.048 205.019Z" fill="#263238"/>
<path d="M127.262 207.904C129.134 208.205 131.069 207.625 132.907 207.309C132.947 207.298 132.984 207.276 133.015 207.247C133.046 207.218 133.07 207.181 133.086 207.139C133.101 207.098 133.107 207.054 133.104 207.009C133.1 206.965 133.087 206.922 133.066 206.884C133.073 206.878 133.078 206.871 133.082 206.862C133.086 206.854 133.088 206.844 133.088 206.835C133.088 206.825 133.086 206.816 133.082 206.807C133.078 206.799 133.073 206.791 133.066 206.786C131.589 205.364 129.791 204.387 127.853 203.952C126.72 203.719 125.117 204.056 124.973 205.573C124.8 207.003 126.168 207.718 127.262 207.904ZM125.957 206.589C124.517 204.6 127.267 204.429 128.093 204.636C128.629 204.781 129.155 204.964 129.667 205.185C130.717 205.655 131.744 206.182 132.744 206.765C131.832 206.863 130.934 207.039 130.027 207.174C128.942 207.329 126.763 207.682 125.957 206.589Z" fill="#263238"/>
<path d="M78.3936 98.0056C78.3936 98.0056 103.291 143.714 103.958 146.926C104.981 151.857 110.4 200.554 110.4 200.554L136.32 200.036C136.32 200.036 131.856 157.099 127.627 142.952C124.584 132.763 102.61 98.9691 102.61 98.9691L78.3936 98.0056Z" fill="#37474F"/>
<path d="M133.963 195.768C130.243 195.737 117.058 195.576 112.104 196.073C112.066 196.073 112.071 196.146 112.104 196.151C113.808 196.415 130.239 196.006 133.959 195.877C133.966 195.88 133.975 195.881 133.983 195.879C133.991 195.878 133.999 195.875 134.006 195.87C134.013 195.865 134.018 195.859 134.022 195.851C134.027 195.843 134.029 195.835 134.029 195.826C134.03 195.817 134.028 195.808 134.025 195.8C134.021 195.792 134.016 195.784 134.01 195.779C134.003 195.773 133.996 195.769 133.988 195.767C133.98 195.765 133.971 195.766 133.963 195.768Z" fill="#263238"/>
<path d="M82.6415 102.201C84.2735 104.962 86.0015 107.666 87.6623 110.407C89.3231 113.147 90.9935 115.887 92.6399 118.622C95.9231 124.147 99.1231 129.709 102.24 135.307C103.761 137.902 105.062 140.639 106.128 143.486C107.101 146.334 107.832 149.271 108.312 152.261C108.821 155.26 109.157 158.29 109.469 161.321C109.789 164.543 110.123 167.766 110.472 170.992C111.153 177.591 111.837 184.19 112.521 190.79C112.603 191.598 112.685 192.406 112.761 193.219C112.761 193.338 112.574 193.359 112.56 193.219C111.797 186.666 111.163 180.088 110.472 173.535C110.126 170.265 109.782 166.996 109.44 163.729C109.118 160.689 108.811 157.643 108.374 154.623C107.973 151.642 107.364 148.698 106.55 145.817C105.654 142.834 104.453 139.967 102.969 137.27C99.9695 131.681 96.7919 126.19 93.6143 120.694C90.4367 115.198 87.1727 109.655 83.8223 104.227C83.4095 103.559 82.9919 102.89 82.5599 102.232C82.5263 102.196 82.6127 102.15 82.6415 102.201Z" fill="#263238"/>
<path d="M86.5536 220.3C85.3728 220.223 54.8736 206.889 54.0288 205.625C53.9912 205.551 53.9745 205.466 53.9808 205.382C53.9808 204.247 56.0976 200.29 57.864 195.089C57.9744 194.758 58.7616 193.214 59.8512 191.137C62.88 185.444 68.16 175.638 68.16 175.638L88.0944 184.185L78.552 199.596L77.0688 203.325C77.0688 203.325 86.424 213.763 87.2112 215.239C87.9984 216.716 87.7296 220.373 86.5536 220.3Z" fill="#EB9481"/>
<path d="M86.5536 220.3C85.3728 220.223 54.8736 206.889 54.0288 205.625C53.9912 205.551 53.9745 205.466 53.9808 205.382C53.9808 204.247 56.0976 200.29 57.864 195.089C57.9744 194.758 58.7616 193.214 59.8512 191.137L78.5712 199.596L77.088 203.325C77.088 203.325 86.4432 213.763 87.2304 215.239C88.0176 216.716 87.7296 220.373 86.5536 220.3Z" fill="white"/>
<path d="M86.5538 220.3C85.373 220.223 54.8738 206.889 54.029 205.625C53.7026 205.144 55.0658 200.652 57.869 195.089L77.069 203.331C77.069 203.331 86.4242 213.758 87.2162 215.245C88.0082 216.731 87.7298 220.373 86.5538 220.3Z" fill="#A6A6A6"/>
<path d="M86.6015 218.829C81.6623 216.54 61.5311 207.806 56.4863 205.952C56.4431 205.952 56.4335 205.952 56.4863 205.983C61.3391 208.366 81.5327 216.923 86.5823 218.933C86.6783 218.959 86.7071 218.876 86.6015 218.829Z" fill="#263238"/>
<path d="M85.7374 213.271C85.1897 213.011 84.598 212.877 83.9998 212.877C83.4016 212.877 82.8099 213.011 82.2622 213.271C81.2775 213.736 80.4969 214.593 80.083 215.664C80.083 215.695 80.1262 215.721 80.1406 215.69C80.7065 214.697 81.5554 213.928 82.5601 213.5C83.5648 213.071 84.6712 213.005 85.7134 213.312C85.7215 213.31 85.7284 213.304 85.7329 213.297C85.7373 213.289 85.7389 213.28 85.7374 213.271Z" fill="#263238"/>
<path d="M78.8113 204.703C76.8289 203.807 74.2273 203.569 72.3313 204.796C72.2593 204.843 72.3313 204.952 72.3937 204.947C74.5073 204.715 76.6377 204.727 78.7489 204.983C78.7814 204.987 78.8141 204.978 78.8408 204.957C78.8675 204.937 78.8865 204.907 78.8941 204.873C78.9018 204.838 78.8976 204.802 78.8824 204.771C78.8671 204.74 78.8419 204.716 78.8113 204.703Z" fill="#263238"/>
<path d="M80.1121 206.019C78.1297 205.123 75.5281 204.885 73.6321 206.112C73.5601 206.159 73.6321 206.268 73.6945 206.262C75.808 206.028 77.9387 206.041 80.0497 206.299C80.0822 206.303 80.1149 206.293 80.1416 206.273C80.1683 206.253 80.1873 206.223 80.1949 206.188C80.2026 206.154 80.1984 206.118 80.1831 206.087C80.1679 206.056 80.1427 206.032 80.1121 206.019Z" fill="#263238"/>
<path d="M81.4176 207.335C79.4304 206.439 76.8288 206.2 74.9376 207.428C74.8608 207.475 74.9376 207.583 74.9952 207.578C77.1087 207.344 79.2393 207.356 81.3504 207.614C81.3835 207.62 81.4176 207.613 81.4458 207.593C81.474 207.573 81.4943 207.543 81.5027 207.508C81.5111 207.473 81.5071 207.435 81.4913 207.403C81.4756 207.371 81.4493 207.347 81.4176 207.335Z" fill="#263238"/>
<path d="M82.7184 208.65C80.7312 207.754 78.1344 207.516 76.2384 208.738C76.1616 208.79 76.2384 208.899 76.296 208.894C78.4094 208.66 80.5401 208.672 82.6512 208.93C82.6843 208.936 82.7183 208.928 82.7465 208.909C82.7747 208.889 82.795 208.859 82.8035 208.823C82.8119 208.788 82.8079 208.751 82.7921 208.719C82.7763 208.687 82.75 208.663 82.7184 208.65Z" fill="#263238"/>
<path d="M59.6545 201.383C57.4129 200.419 56.0209 204.185 58.2721 205.149C60.5233 206.112 61.9201 202.346 59.6545 201.383Z" fill="#263238"/>
<path d="M83.1073 199.886C82.4305 198.544 80.8321 198.876 79.8577 199.544C78.2163 200.731 76.8922 202.361 76.0177 204.273C76.0138 204.282 76.0118 204.291 76.0117 204.3C76.0116 204.31 76.0135 204.319 76.0172 204.327C76.0209 204.336 76.0263 204.343 76.033 204.349C76.0398 204.355 76.0477 204.359 76.0561 204.361C76.0561 204.532 76.1617 204.734 76.3489 204.693C78.1681 204.242 80.1601 204.009 81.7921 202.973C82.7281 202.372 83.7457 201.155 83.1073 199.886ZM78.9553 203.403C78.0673 203.647 77.1745 203.843 76.2961 204.123C77.0227 203.178 77.7933 202.274 78.6049 201.414C79.0045 201.003 79.4294 200.623 79.8769 200.274C80.5729 199.756 83.2033 198.798 82.5313 201.227C82.1617 202.569 80.0161 203.113 78.9553 203.403Z" fill="#263238"/>
<path d="M70.7378 202.926C72.3698 203.962 74.3618 204.206 76.1762 204.662C76.3634 204.708 76.4882 204.506 76.4738 204.33C76.4828 204.329 76.4914 204.326 76.4988 204.32C76.5062 204.314 76.5121 204.307 76.5159 204.298C76.5198 204.289 76.5215 204.279 76.5208 204.27C76.5202 204.26 76.5172 204.25 76.5122 204.242C75.6391 202.327 74.3149 200.692 72.6722 199.503C71.7122 198.829 70.1042 198.492 69.4226 199.829C68.741 201.165 69.7826 202.32 70.7378 202.926ZM69.989 201.176C69.3218 198.746 71.9474 199.71 72.6434 200.233C73.0903 200.582 73.5138 200.964 73.9106 201.378C74.7207 202.24 75.4897 203.146 76.2146 204.092C75.3362 203.812 74.4434 203.61 73.5554 203.367C72.4802 203.056 70.3538 202.538 69.989 201.176Z" fill="#263238"/>
<path d="M80.1023 198.736L57.7871 189.013C57.7871 189.013 85.4543 145.113 85.6559 141.844C85.8383 138.953 73.6847 113.768 73.2095 106.428C72.6911 98.5029 76.2239 92.3749 80.1119 88.5676L103.128 99.1297C103.128 99.1297 100.699 103.32 96.8879 105.656C96.8879 105.656 108.691 134.768 108.019 143.719C107.347 152.67 80.1023 198.736 80.1023 198.736Z" fill="#37474F"/>
<path d="M81.091 194.157C77.8654 192.66 78.811 193.038 75.5662 191.567C73.9822 190.852 63.5662 186.174 61.963 185.786C61.9294 185.786 61.9054 185.838 61.939 185.858C63.3262 186.775 73.8286 191.256 75.427 191.94C78.6958 193.328 77.7694 192.893 81.0526 194.24C81.0575 194.247 81.064 194.252 81.0715 194.256C81.079 194.259 81.0872 194.261 81.0953 194.26C81.1035 194.259 81.1113 194.256 81.1181 194.251C81.1248 194.246 81.1303 194.24 81.134 194.232C81.1376 194.224 81.1394 194.215 81.139 194.206C81.1386 194.197 81.1362 194.189 81.1319 194.181C81.1276 194.174 81.1216 194.168 81.1144 194.163C81.1073 194.159 81.0992 194.157 81.091 194.157Z" fill="#263238"/>
<path d="M100.661 105.123C98.2644 105.726 95.92 106.547 93.6527 107.578C93.6435 107.582 93.6351 107.587 93.6278 107.594C93.6206 107.601 93.6147 107.609 93.6105 107.619C93.6062 107.628 93.6037 107.638 93.6032 107.649C93.6026 107.659 93.6039 107.669 93.6071 107.679C93.6102 107.689 93.6151 107.698 93.6215 107.706C93.6279 107.714 93.6357 107.72 93.6444 107.725C93.6531 107.729 93.6625 107.732 93.6722 107.733C93.6818 107.733 93.6915 107.732 93.7007 107.728C96.0527 106.988 98.4431 106.294 100.757 105.418C100.934 105.351 100.843 105.081 100.661 105.123Z" fill="#263238"/>
<path d="M97.9201 104.118C97.6965 104.547 97.4992 104.992 97.3297 105.449C97.1641 105.796 97.0614 106.174 97.0273 106.563C97.0273 106.641 97.1233 106.656 97.1665 106.61C97.4074 106.299 97.6017 105.949 97.7425 105.574C97.9393 105.164 98.1409 104.76 98.3281 104.341C98.4577 104.035 98.0689 103.838 97.9201 104.118Z" fill="#263238"/>
<path d="M98.2081 101.766C98.3521 101.383 98.4913 101.005 98.6401 100.621C98.7889 100.238 98.9761 99.8445 99.1201 99.4405C99.1201 99.3783 99.2353 99.4405 99.2113 99.4871C99.0673 99.8704 98.9761 100.274 98.8657 100.668C98.7553 101.062 98.6305 101.455 98.5105 101.849C98.2849 102.58 98.0305 103.305 97.7185 104.014C98.0962 104.035 98.4734 103.964 98.8225 103.807C99.1792 103.561 99.4533 103.198 99.6049 102.771C99.8065 102.346 99.9937 101.911 100.2 101.487C100.454 101.027 100.668 100.543 100.839 100.041C100.839 99.9792 100.954 100.041 100.93 100.088C100.617 101.15 100.207 102.175 99.7057 103.149C99.4897 103.527 99.3217 103.926 98.9281 104.071C98.5021 104.2 98.0562 104.233 97.6177 104.17C97.5601 104.17 97.4929 104.17 97.5121 104.077C97.7087 103.295 97.941 102.524 98.2081 101.766Z" fill="#263238"/>
<path d="M97.2285 106.604C98.0493 108.474 98.7693 110.339 99.5325 112.204C100.296 114.069 100.973 115.871 101.659 117.726C103.032 121.466 104.261 125.278 105.341 129.122C105.873 131.028 106.368 132.95 106.809 134.887C107.296 136.818 107.652 138.785 107.875 140.772C108.068 142.755 107.905 144.76 107.395 146.677C106.866 148.572 106.186 150.414 105.365 152.183C104.861 153.302 104.693 153.152 104.933 152.587C105.619 150.981 107.419 146.117 107.289 142.03C107.184 140.074 106.905 138.133 106.454 136.234C106.035 134.276 105.563 132.333 105.038 130.407C104.016 126.604 102.801 122.88 101.553 119.161C100.853 117.089 100.113 115.017 99.3934 112.945C98.6734 110.873 97.9533 108.966 97.1469 106.677C97.1229 106.584 97.2045 106.547 97.2285 106.604Z" fill="#263238"/>
<path d="M80.2898 100.425C80.6882 100.264 81.2498 100.528 81.653 100.601C82.1752 100.696 82.7028 100.754 83.2322 100.772C83.756 100.792 84.2804 100.773 84.8018 100.715C85.3269 100.7 85.8414 100.553 86.3042 100.285C87.0635 99.6879 87.7144 98.9451 88.2242 98.0937C88.8317 97.2236 89.3334 96.2731 89.717 95.2654C89.717 95.2032 89.8178 95.2654 89.7986 95.3068C89.6306 95.8818 89.5058 96.462 89.3186 97.0266C89.1117 97.5571 88.8644 98.0682 88.5794 98.5547C88.1173 99.5337 87.4338 100.371 86.5922 100.989C85.6658 101.559 84.4754 101.507 83.4434 101.461C82.8449 101.423 82.2497 101.338 81.6626 101.207C81.2402 101.108 80.5298 101.036 80.261 100.637C80.2484 100.622 80.239 100.604 80.2335 100.584C80.2281 100.565 80.2266 100.544 80.2294 100.524C80.2321 100.503 80.239 100.484 80.2494 100.467C80.2598 100.45 80.2736 100.435 80.2898 100.425Z" fill="#263238"/>
<path d="M64.1568 184.408C67.824 178.413 71.424 172.37 74.9568 166.278C78.4896 160.186 81.9744 154.048 85.4112 147.863C86.232 146.387 87.1776 144.916 87.7056 143.279C88.2816 141.502 87.9552 139.777 87.4368 138.037C86.4579 134.862 85.3137 131.749 84.0096 128.713C82.7232 125.651 81.336 122.642 79.9728 119.622C78.6096 116.602 77.184 113.618 76.1328 110.469C75.1728 107.459 74.784 104.341 75.5328 101.222C76.2816 98.104 77.8944 95.3483 79.5792 92.7531C80.0208 92.0693 80.4768 91.3907 80.9232 90.6811C80.9568 90.6293 81.0288 90.6811 80.9952 90.7432C79.1376 93.4472 77.328 96.3117 76.2384 99.4871C75.6815 101.052 75.3701 102.707 75.3168 104.382C75.3078 106.083 75.5525 107.774 76.0416 109.391C76.944 112.541 78.3696 115.519 79.6992 118.482C81.0288 121.445 82.4496 124.512 83.76 127.563C85.1119 130.633 86.3136 133.779 87.36 136.985C87.8064 138.41 88.32 139.901 88.2816 141.43C88.248 143.103 87.5088 144.61 86.7408 146.019C83.3808 152.157 79.9392 158.223 76.4352 164.253C72.9312 170.282 69.3264 176.312 65.6784 182.279L64.296 184.532C64.224 184.626 64.0992 184.517 64.1568 184.408Z" fill="#263238"/>
<path d="M104.405 71.2095C106.483 76.1305 116.981 82.9111 121.896 83.6415C125.429 84.1595 136.171 84.346 139.853 83.7399C144.173 83.0251 140.87 70.4636 138.322 70.7899C131.314 71.6705 125.362 72.6547 123.49 72.6547C121.205 72.6547 108.845 68.376 107.357 67.7699C103.709 66.304 103.229 68.4174 104.405 71.2095Z" fill="#EB9481"/>
<path d="M104.472 72.52C107.102 76.721 115.843 83.5897 115.843 83.5897L117.057 80.6889L121.075 71.0955C121.075 71.0955 113.045 68.376 107.76 67.1328C107.138 66.9801 106.505 66.883 105.869 66.8427C102.494 66.6459 102.201 68.894 104.472 72.52Z" fill="#EAE7FF"/>
<path d="M104.472 72.52C107.102 76.721 115.843 83.5896 115.843 83.5896L117.057 80.6889C113.798 76.6018 108.763 70.4117 105.869 66.8531C102.494 66.6459 102.201 68.894 104.472 72.52Z" fill="#263238"/>
<path d="M114.269 81.642C114.936 79.8756 117.902 72.7635 118.641 71.282C118.689 71.1784 118.766 71.1887 118.723 71.282C117.436 74.8188 115.972 78.2773 114.336 81.642C114.317 81.7041 114.24 81.6834 114.269 81.642Z" fill="#263238"/>
<path d="M137.035 70.9194C141.298 70.3185 146.573 69.2877 151.042 71.3338C151.543 71.5462 151.965 71.9349 152.237 72.4371C154.253 73.3177 154.474 74.6075 154.474 74.6075C156.12 76.0476 156.178 77.4047 156.178 77.4047C156.178 77.4047 158.539 78.4407 158.179 80.1087C157.786 81.9528 154.55 80.1087 152.198 80.2589C146.798 80.6215 139.238 82.7609 137.678 83.0302L137.035 70.9194Z" fill="#EB9481"/>
<path d="M146.294 76.348C147.873 76.2315 149.458 76.2315 151.037 76.348C152.756 76.5808 154.457 76.9531 156.125 77.4617C156.136 77.4658 156.148 77.4652 156.158 77.4598C156.168 77.4545 156.176 77.4449 156.18 77.4332C156.184 77.4216 156.183 77.4087 156.178 77.3975C156.173 77.3864 156.164 77.3778 156.154 77.3737C153.021 76.0471 149.61 75.6744 146.294 76.2962C146.218 76.2859 146.218 76.3532 146.294 76.348Z" fill="#263238"/>
<path d="M145.291 70.966C147.926 71.111 149.573 71.5669 152.222 72.4268V72.3957C149.304 71.08 148.109 70.9556 145.277 70.8417C145.186 70.8831 145.19 70.966 145.291 70.966Z" fill="#263238"/>
<path d="M145.718 81.1395C145.032 81.4866 145.2 81.8751 146.51 82.2014C147.821 82.5278 153.269 82.6262 153.077 84.6775C152.885 86.7287 145.2 86.4697 143.054 85.7445C140.909 85.0193 137.678 83.0302 137.678 83.0302C139.2 82.7557 142.771 81.7145 145.718 81.1395Z" fill="#EB9481"/>
<path d="M110.112 79.052C110.078 79.9378 110.001 80.8391 109.886 81.7352C109.886 81.699 109.886 81.6679 109.92 81.6368C110.078 81.1706 110.237 80.694 110.429 80.2434C110.429 80.2434 110.477 80.2434 110.472 80.2434C110.38 80.7372 110.241 81.2197 110.059 81.6834C109.973 81.9062 109.891 82.1237 109.8 82.3413C109.742 82.7401 109.675 83.1338 109.603 83.5275C109.459 84.2682 108.811 87.4177 108.643 87.9512C108.614 88.06 108.489 88.0341 108.499 87.9098C108.533 87.3296 109.075 84.0507 109.185 83.3048C109.4 81.8645 109.687 80.4379 110.045 79.0313C110.069 79.0054 110.117 79.0261 110.112 79.052Z" fill="#263238"/>
<path d="M105.12 102.605C103.839 103.315 102.187 104.418 94.7474 102.839C94.2674 102.735 93.8162 102.611 93.3458 102.46C86.3714 100.202 77.9858 91.3493 77.5298 90.7225C77.5298 90.7225 88.613 71.3338 102.787 65.2369C104.539 64.4858 107.439 65.9362 109.027 67.744C109.599 68.3915 110.842 73.152 110.367 77.0059C109.891 80.8598 106.397 101.896 105.12 102.605Z" fill="#EAE7FF"/>
<path d="M104.122 76.8298C104.175 77.6491 104.069 78.4714 103.81 79.2436C103.749 78.4241 103.855 77.6001 104.122 76.8298Z" fill="white"/>
<path d="M99.2879 90.0336C99.3184 90.4413 99.3055 90.8515 99.2495 91.2561C99.2033 91.6637 99.1114 92.0637 98.9759 92.4475C98.9428 92.0381 98.9557 91.6259 99.0143 91.2198C99.0633 90.8144 99.1551 90.4165 99.2879 90.0336Z" fill="white"/>
<path d="M91.075 80.0517C91.1291 80.8727 91.0228 81.6969 90.763 82.4708C90.7027 81.6495 90.8091 80.824 91.075 80.0517Z" fill="white"/>
<path d="M107.285 89.3602C107.316 89.7696 107.303 90.1815 107.247 90.5878C107.2 90.9955 107.108 91.3955 106.973 91.7792C106.94 91.3698 106.953 90.9576 107.011 90.5516C107.06 90.1444 107.152 89.7447 107.285 89.3602Z" fill="white"/>
<path d="M96.7393 78.3423C97.1169 78.3076 97.497 78.3198 97.8721 78.3786C98.2499 78.4303 98.6206 78.5312 98.9761 78.679C98.2168 78.7379 97.4546 78.6231 96.7393 78.3423Z" fill="white"/>
<path d="M87.4175 87.8787C88.1767 87.8209 88.9387 87.9356 89.6543 88.2154C88.8948 88.2811 88.1313 88.1661 87.4175 87.8787Z" fill="white"/>
<path d="M98.3999 98.2024C99.1591 98.1436 99.9214 98.2583 100.637 98.5391C99.8773 98.6038 99.1139 98.4889 98.3999 98.2024Z" fill="white"/>
<path d="M84.5425 94.4521C85.3017 94.3944 86.0637 94.5091 86.7793 94.7888C86.0199 94.8535 85.2565 94.7386 84.5425 94.4521Z" fill="white"/>
<path d="M104.05 67.5472C104.809 67.4894 105.571 67.6041 106.287 67.8839C105.527 67.9417 104.765 67.827 104.05 67.5472Z" fill="white"/>
<path d="M101.337 70.852C101.095 71.1668 100.817 71.4486 100.512 71.6912C100.214 71.9394 99.8924 72.1514 99.5518 72.3232C99.7928 72.0104 100.067 71.7288 100.368 71.484C100.668 71.2348 100.993 71.0229 101.337 70.852Z" fill="white"/>
<path d="M86.5585 80.2434C86.3128 80.5554 86.0341 80.8354 85.7281 81.0774C85.4337 81.3303 85.1112 81.5425 84.7681 81.7093C85.015 81.3986 85.2935 81.1188 85.5985 80.8753C85.8936 80.6235 86.2159 80.4113 86.5585 80.2434Z" fill="white"/>
<path d="M105.015 84.4806C104.769 84.7943 104.49 85.0759 104.184 85.3198C103.889 85.5716 103.567 85.7838 103.224 85.9517C103.47 85.638 103.748 85.3564 104.055 85.1126C104.351 84.8633 104.673 84.6513 105.015 84.4806Z" fill="white"/>
<path d="M93.0624 92.6029C92.8168 92.9165 92.5381 93.1982 92.232 93.442C91.9364 93.6931 91.6141 93.9052 91.272 94.074C91.5175 93.7603 91.7962 93.4787 92.1024 93.2348C92.3991 92.9855 92.7212 92.7735 93.0624 92.6029Z" fill="white"/>
<path d="M109.594 73.3851C109.348 73.6987 109.069 73.9804 108.763 74.2242C108.466 74.4724 108.144 74.6844 107.803 74.8562C108.049 74.5425 108.327 74.2609 108.634 74.017C108.929 73.7659 109.251 73.5538 109.594 73.3851Z" fill="white"/>
<path d="M109.344 82.7971C109.053 82.5321 108.793 82.2314 108.567 81.901C108.333 81.5827 108.136 81.2348 107.981 80.865C108.273 81.1268 108.534 81.426 108.759 81.7559C108.988 82.0793 109.184 82.4283 109.344 82.7971Z" fill="white"/>
<path d="M82.704 89.2825C82.4133 89.0175 82.1524 88.7167 81.9264 88.3863C81.6954 88.0661 81.4989 87.7185 81.3408 87.3503C81.6315 87.6153 81.8925 87.9161 82.1184 88.2465C82.3511 88.5655 82.5477 88.9133 82.704 89.2825Z" fill="white"/>
<path d="M106.104 96.9955C105.812 96.7336 105.551 96.4344 105.326 96.1045C105.096 95.7836 104.9 95.4361 104.741 95.0685C105.031 95.3335 105.292 95.6343 105.518 95.9647C105.75 96.2826 105.946 96.6285 106.104 96.9955Z" fill="white"/>
<path d="M94.3774 75.0064C94.0868 74.7432 93.8258 74.4442 93.5998 74.1154C93.3707 73.7937 93.1744 73.4464 93.0142 73.0794C93.3059 73.3413 93.567 73.6405 93.7918 73.9704C94.0208 74.2921 94.2171 74.6394 94.3774 75.0064Z" fill="white"/>
<path d="M94.5839 101.388C94.2932 101.123 94.0322 100.822 93.8063 100.492C93.576 100.171 93.3796 99.8237 93.2207 99.456C93.5124 99.7179 93.7735 100.017 93.9983 100.347C94.2293 100.669 94.4257 101.018 94.5839 101.388Z" fill="white"/>
<path d="M96.5762 85.8274C96.2882 85.5609 96.029 85.2603 95.8034 84.9313C95.569 84.6136 95.3723 84.2655 95.2178 83.8953C95.507 84.1604 95.7663 84.4611 95.9906 84.7914C96.2239 85.1099 96.4206 85.4578 96.5762 85.8274Z" fill="white"/>
<path d="M106.43 72.9085C104.621 72.5459 102.922 68.5107 102.706 65.7964C102.706 65.6099 103.55 64.1336 104.515 62.2843C105.101 61.1603 105.72 59.8912 106.214 58.6894C106.315 58.4459 106.906 59.2696 106.906 59.2696L108.192 60.3056L112.44 63.8228C111.428 65.1327 110.569 66.5714 109.882 68.1066C109.814 68.273 109.762 68.4466 109.728 68.6246C109.726 68.654 109.726 68.6834 109.728 68.7127C109.464 69.7383 108.173 73.2556 106.43 72.9085Z" fill="#EB9481"/>
<path d="M109.728 68.6505C109.726 68.6799 109.726 68.7093 109.728 68.7386C109.476 68.6588 109.23 68.5566 108.994 68.433C104.343 66.0813 106.392 59.3576 106.392 59.3576L108.216 60.3315L112.464 63.8487C111.453 65.1586 110.593 66.5973 109.906 68.1325C109.83 68.2979 109.77 68.4715 109.728 68.6505Z" fill="#263238"/>
<path d="M117.322 49.5104C117.322 49.5104 119.448 50.966 119.458 53.556C119.467 56.146 118.498 58.679 118.296 58.7723C118.095 58.8655 117.322 49.5104 117.322 49.5104Z" fill="#263238"/>
<path d="M106.771 50.8572C105.495 53.5767 105.562 62.1496 107.155 64.3563C109.469 67.5576 113.923 68.6609 116.616 65.4959C119.223 62.4294 118.954 51.2613 117.096 49.1789C114.394 46.102 108.663 46.8324 106.771 50.8572Z" fill="#EB9481"/>
<path d="M113.549 57.7207C113.549 57.7207 113.505 57.7518 113.51 57.7725C113.539 58.3579 113.481 59.0313 112.997 59.2385C112.997 59.2385 112.997 59.2747 112.997 59.2696C113.597 59.166 113.664 58.2698 113.549 57.7207Z" fill="#263238"/>
<path d="M113.054 57.125C112.181 57.0732 112.152 58.9588 112.963 59.0054C113.774 59.052 113.784 57.1665 113.054 57.125Z" fill="#263238"/>
<path d="M116.51 57.7C116.51 57.7 116.554 57.7 116.554 57.7518C116.525 58.3372 116.587 59.0106 117.077 59.2126C117.077 59.2126 117.077 59.2488 117.077 59.2437C116.472 59.1452 116.4 58.2491 116.51 57.7Z" fill="#263238"/>
<path d="M117.005 57.0991C117.874 57.0422 117.917 58.9277 117.11 58.9795C116.304 59.0313 116.275 57.1458 117.005 57.0991Z" fill="#263238"/>
<path d="M112.507 55.6902C112.737 55.6197 112.962 55.5368 113.184 55.4415C113.436 55.3923 113.666 55.2538 113.837 55.0479C113.878 54.9725 113.896 54.8844 113.886 54.7973C113.876 54.7103 113.841 54.629 113.784 54.5661C113.654 54.4596 113.5 54.3923 113.338 54.3714C113.176 54.3504 113.012 54.3765 112.862 54.447C112.538 54.5406 112.258 54.7601 112.075 55.0634C112.039 55.1356 112.022 55.2175 112.027 55.2995C112.033 55.3815 112.06 55.4602 112.105 55.5261C112.151 55.5921 112.213 55.6426 112.284 55.6717C112.355 55.7008 112.433 55.7072 112.507 55.6902Z" fill="#263238"/>
<path d="M117.6 56.5242C117.367 56.4678 117.136 56.3987 116.909 56.317C116.656 56.2808 116.421 56.1551 116.242 55.9595C116.196 55.8875 116.173 55.8007 116.178 55.7133C116.184 55.6258 116.216 55.5428 116.271 55.4778C116.394 55.3636 116.544 55.2874 116.705 55.2574C116.865 55.2273 117.03 55.2444 117.183 55.3069C117.511 55.3803 117.802 55.5835 117.999 55.8767C118.04 55.946 118.061 56.0268 118.061 56.1092C118.06 56.1915 118.037 56.2719 117.995 56.3405C117.953 56.4091 117.893 56.463 117.823 56.4956C117.753 56.5282 117.675 56.5382 117.6 56.5242Z" fill="#263238"/>
<path d="M112.32 63.2582C112.45 63.398 112.575 63.5845 112.771 63.6052C112.973 63.6051 113.173 63.5592 113.357 63.4705C113.357 63.4705 113.391 63.4705 113.357 63.5016C113.278 63.6155 113.172 63.7041 113.051 63.7579C112.929 63.8118 112.796 63.8288 112.666 63.8072C112.556 63.775 112.458 63.7087 112.383 63.6166C112.307 63.5245 112.259 63.4107 112.243 63.2892C112.24 63.2782 112.24 63.2661 112.244 63.2554C112.249 63.2447 112.257 63.2364 112.267 63.2323C112.278 63.2281 112.289 63.2285 112.299 63.2334C112.309 63.2383 112.316 63.2472 112.32 63.2582Z" fill="#263238"/>
<path d="M115.459 60.7614C115.459 60.7614 115.483 61.6316 115.459 62.0409C114.722 61.9564 113.977 61.9843 113.246 62.1237C113.074 62.1652 113.093 62.015 113.29 61.9165C113.878 61.6264 114.533 61.5326 115.171 61.6472C115.21 61.5384 115.109 60.3004 115.171 60.3056C115.462 60.3671 115.743 60.4717 116.006 60.6164C116.006 58.793 115.738 56.9904 115.762 55.167C115.762 55.1048 115.853 55.0945 115.862 55.167C116.204 57.0959 116.364 59.0569 116.342 61.0204C116.347 61.2431 115.603 60.8443 115.459 60.7614Z" fill="#263238"/>
<path d="M114.379 61.7301C114.188 62.2732 113.833 62.7311 113.371 63.0302C112.646 63.3462 112.411 62.6366 113.141 61.9942C113.523 61.7855 113.952 61.6942 114.379 61.7301Z" fill="#263238"/>
<path d="M113.626 62.8697C113.549 62.937 113.463 62.9912 113.371 63.0302C112.704 63.3203 112.44 62.7453 112.978 62.1652C113.342 62.1963 113.76 62.3413 113.626 62.8697Z" fill="#FF99BA"/>
<path d="M106.407 58.1869C107.285 58.477 108.293 55.628 108.581 54.5609C108.831 53.5975 109.119 50.5361 109.162 50.3237C109.205 50.1113 113.002 53.0328 115.2 52.3387C117.399 51.6446 118.891 49.4949 118.925 48.4952C118.959 47.4954 116.208 44.9572 113.832 44.8277C111.456 44.6982 108.235 47.9357 108.235 47.9357C108.624 47.4593 108.977 46.95 109.291 46.4128C109.253 46.2988 107.717 46.9619 107.434 48.1429C107.434 48.1429 107.741 46.6563 107.626 46.6304C107.511 46.6045 106.315 47.8736 106.584 48.837C106.584 48.837 105.202 50.1269 105.077 51.541C104.952 52.9551 105.375 57.8451 106.407 58.1869Z" fill="#263238"/>
<path d="M116.774 51.8C116.12 52.1826 115.416 52.4551 114.686 52.6081C113.867 52.687 113.042 52.5446 112.286 52.1937C111.525 51.8763 110.818 51.4247 110.193 50.8572C109.641 50.3703 109.147 49.7746 108.557 49.3395C108.408 49.2255 108.24 49.4586 108.331 49.6037C109.316 51.1051 110.723 52.2241 112.344 52.7946C113.097 53.0594 113.9 53.1089 114.676 52.9382C115.452 52.7675 116.173 52.3825 116.769 51.8207C116.769 51.8207 116.784 51.8 116.774 51.8Z" fill="#263238"/>
<path d="M107.323 57.9331C107.323 57.9331 105.96 54.9494 104.731 55.4312C103.502 55.9129 104.251 60.0414 105.513 60.7977C105.668 60.9056 105.841 60.9788 106.023 61.0127C106.204 61.0467 106.39 61.0408 106.569 60.9953C106.749 60.9498 106.918 60.8658 107.066 60.7481C107.215 60.6305 107.34 60.4817 107.433 60.3107L107.323 57.9331Z" fill="#EB9481"/>
<path d="M104.976 56.607C104.976 56.607 104.947 56.607 104.976 56.6485C105.85 57.2079 106.205 58.2025 106.416 59.2385C106.376 59.1288 106.315 59.0298 106.236 58.9482C106.158 58.8666 106.063 58.8045 105.96 58.7661C105.857 58.7276 105.747 58.7139 105.639 58.7257C105.53 58.7375 105.425 58.7746 105.331 58.8344C105.303 58.8344 105.331 58.8914 105.331 58.8914C105.503 58.8626 105.679 58.892 105.834 58.9755C105.99 59.059 106.118 59.1925 106.2 59.3576C106.338 59.6342 106.447 59.926 106.527 60.2279C106.555 60.3263 106.714 60.3004 106.699 60.1916C106.906 58.9018 106.234 56.9489 104.976 56.607Z" fill="#263238"/>
<path d="M98.3234 71.2561C97.3634 77.125 103.258 96.8971 107.035 100.59C112.656 106.081 123.048 109.692 126.816 110.868C128.458 111.386 132.999 98.9173 131.338 98.0937C127.781 96.348 116.731 92.6184 115.68 91.686C114.629 90.7536 108.293 80.8753 105.471 75.1877C101.693 67.5317 98.7986 68.2879 98.3234 71.2561Z" fill="#EB9481"/>
<path d="M128.539 96.9955C128.539 96.9955 133.445 98.3475 136.608 99.3887C138.375 99.974 141.322 101.264 142.44 102.331C144.111 103.932 150.149 111.764 148.421 113.385C146.856 114.856 142.459 107.412 142.459 107.412C142.459 107.412 147.509 114.499 145.339 115.892C143.17 117.286 139.2 108.164 139.2 108.164C139.2 108.164 144.235 115.571 141.773 116.623C139.911 117.415 135.917 109.371 135.917 109.371C135.917 109.371 140.208 115.768 138.317 116.674C136.234 117.679 132.12 110.5 132.12 110.5C126.975 111.935 123.96 110.344 121.978 108.946C121.512 108.604 128.539 96.9955 128.539 96.9955Z" fill="#EB9481"/>
<path d="M140.856 104.838C141.48 105.646 142.114 106.465 142.666 107.33C143.218 108.195 143.741 109.086 144.216 110.002C144.86 111.188 145.375 112.45 145.752 113.763C144.926 111.484 142.992 108.35 142.44 107.485C141.888 106.62 141.374 105.724 140.827 104.859C140.813 104.838 140.842 104.817 140.856 104.838Z" fill="#263238"/>
<path d="M137.923 106.936C138.989 107.848 141.221 111.235 142.08 113.509C142.118 113.603 142.08 113.597 142.017 113.509C141.345 112.385 138.619 108.034 137.899 106.951C137.885 106.936 137.909 106.92 137.923 106.936Z" fill="#263238"/>
<path d="M135.105 108.262C136.429 109.761 137.475 111.519 138.187 113.442C138.221 113.535 138.153 113.52 138.101 113.442C137.107 111.696 136.339 110.334 135.053 108.309C135.033 108.262 135.077 108.215 135.105 108.262Z" fill="#263238"/>
<path d="M103.68 71.686C99.2976 64.9986 96.6768 67.4747 97.5552 74.737C98.3808 81.528 100.584 89.6192 100.584 89.6192L111.624 83.8383C111.624 83.8383 106.469 75.9699 103.68 71.686Z" fill="#EAE7FF"/>
<path d="M106.344 74.3175C106.49 74.6952 106.594 75.0897 106.656 75.4933C106.724 75.8982 106.748 76.3101 106.728 76.721C106.584 76.3413 106.481 75.945 106.421 75.5399C106.35 75.1373 106.324 74.7268 106.344 74.3175Z" fill="white"/>
<path d="M99.8018 78.3838C100.506 78.0745 101.264 77.9332 102.024 77.9694C101.674 78.1247 101.308 78.2359 100.935 78.3009C100.561 78.3778 100.181 78.4056 99.8018 78.3838Z" fill="white"/>
<path d="M100.085 67.9823C99.7877 68.7394 99.3443 69.4192 98.7842 69.9766C99.0814 69.2196 99.5249 68.5397 100.085 67.9823Z" fill="white"/>
<path d="M109.44 81.5073C109.294 81.8862 109.109 82.2459 108.888 82.5796C108.673 82.9175 108.421 83.2269 108.139 83.5016C108.436 82.7446 108.88 82.0647 109.44 81.5073Z" fill="white"/>
<path d="M101.76 85.5632C101.408 85.4078 101.075 85.2079 100.767 84.9675C100.453 84.7354 100.166 84.4642 99.9121 84.1595C100.614 84.4802 101.244 84.9588 101.76 85.5632Z" fill="white"/>
<path d="M105.12 73.701C105.71 74.5765 106.32 75.4312 106.925 76.291C106.771 75.8559 106.637 75.4156 106.522 74.9701H106.55C106.67 75.312 106.81 75.6487 106.925 76.0061L107.098 76.5241C107.113 76.5595 107.125 76.5958 107.136 76.6329C107.616 77.3011 108.096 77.9694 108.538 78.6531C109.08 79.4716 109.603 80.3004 110.131 81.1292C110.659 81.958 111.192 82.9888 111.763 83.8228C111.816 83.8953 110.803 84.3408 110.693 84.3977C110.582 84.4547 110.525 84.3563 110.63 84.32C110.736 84.2838 111.542 83.7502 111.552 83.7399C111.024 82.9007 110.414 82.1289 109.862 81.3156C109.31 80.5024 108.763 79.6891 108.23 78.8655C107.15 77.1872 106.162 75.4467 105.086 73.7632L105.12 73.701Z" fill="#263238"/>
<path d="M97.8145 79.5441C97.9825 79.8963 98.1649 80.2434 98.2945 80.606L98.4769 81.0566C98.2225 79.7668 97.9969 78.4666 97.7329 77.1768C98.2417 79.2488 98.7553 81.3674 99.2257 83.4705C99.6721 85.4804 100.215 87.5109 100.474 89.5622C100.808 89.4037 101.155 89.2772 101.511 89.1841C101.154 89.433 100.77 89.6331 100.368 89.7798C99.7895 87.6938 99.3089 85.5777 98.9281 83.4394C98.8081 82.8593 98.6977 82.2791 98.5825 81.699C98.4577 81.3467 98.3089 81.01 98.1601 80.663C98.0113 80.3159 97.8769 79.9274 97.7425 79.5596C97.7713 79.5389 97.8049 79.5182 97.8145 79.5441Z" fill="#263238"/>
<path d="M100.747 87.6197C102.283 86.6873 108.701 83.1027 110.136 82.4397C110.237 82.3931 110.29 82.4397 110.189 82.5122C107.142 84.4225 104.002 86.1517 100.781 87.6922C100.742 87.7026 100.704 87.6456 100.747 87.6197Z" fill="#263238"/>
<path d="M276.634 223.802H130.387L151.531 94.3796H297.778L276.634 223.802Z" fill="#EAE7FF"/>
<path d="M201.586 80.9738H153.725L151.531 94.3796H202.752L201.586 80.9738Z" fill="#EAE7FF"/>
<g opacity="0.1">
<path d="M276.634 223.802H130.387L151.531 94.3796H297.778L276.634 223.802Z" fill="black"/>
<path d="M201.586 80.9738H153.725L151.531 94.3796H202.752L201.586 80.9738Z" fill="black"/>
</g>
<path d="M148.56 86.4438C148.24 84.9615 148.24 83.4196 148.56 81.9372C148.88 83.4196 148.88 84.9615 148.56 86.4438Z" fill="#263238"/>
<path d="M144.307 87.7699C143.818 87.223 143.397 86.6101 143.054 85.9466C142.695 85.2968 142.412 84.6006 142.214 83.8746C142.705 84.4183 143.126 85.0296 143.467 85.6927C143.826 86.3448 144.108 87.0425 144.307 87.7699Z" fill="#263238"/>
<path d="M141.235 91.2146C139.886 90.7721 138.65 90.0012 137.621 88.9613C138.294 89.1724 138.939 89.4753 139.541 89.8626C140.156 90.2351 140.725 90.6893 141.235 91.2146Z" fill="#263238"/>
<path d="M140.16 95.8559C138.786 96.2013 137.357 96.2013 135.984 95.8559C137.357 95.5105 138.786 95.5105 140.16 95.8559Z" fill="#263238"/>
<path d="M141.408 100.445C140.899 100.97 140.331 101.424 139.718 101.797C139.116 102.185 138.471 102.488 137.798 102.699C138.305 102.171 138.873 101.717 139.488 101.347C140.089 100.957 140.734 100.654 141.408 100.445Z" fill="#263238"/>
<path d="M144.595 103.755C144.187 105.213 143.472 106.55 142.507 107.661C142.703 106.934 142.985 106.237 143.347 105.589C143.689 104.923 144.109 104.307 144.595 103.755Z" fill="#263238"/>
<path d="M148.896 104.9C149.063 105.637 149.144 106.394 149.136 107.153C149.146 107.913 149.066 108.67 148.896 109.407C148.724 108.67 148.643 107.913 148.656 107.153C148.648 106.394 148.729 105.637 148.896 104.9Z" fill="#263238"/>
<path d="M153.149 103.6C153.638 104.147 154.059 104.76 154.402 105.423C154.762 106.072 155.043 106.768 155.237 107.495C154.272 106.384 153.558 105.047 153.149 103.59V103.6Z" fill="#263238"/>
<path d="M156.216 100.129C156.889 100.339 157.535 100.642 158.136 101.031C158.751 101.401 159.319 101.855 159.825 102.383C159.152 102.174 158.506 101.871 157.905 101.481C157.291 101.111 156.723 100.657 156.216 100.129Z" fill="#263238"/>
<path d="M157.277 95.4881C158.652 95.1429 160.082 95.1429 161.458 95.4881C160.082 95.8334 158.652 95.8334 157.277 95.4881Z" fill="#263238"/>
<path d="M156.048 90.8986C156.556 90.3744 157.124 89.9218 157.738 89.5518C158.338 89.1589 158.983 88.854 159.658 88.6453C158.628 89.6866 157.389 90.4577 156.039 90.8986H156.048Z" fill="#263238"/>
<path d="M152.856 87.5886C153.054 86.8632 153.334 86.1672 153.691 85.5166C154.034 84.853 154.455 84.2402 154.944 83.6933C154.75 84.4202 154.469 85.1167 154.109 85.7653C153.766 86.4288 153.345 87.0417 152.856 87.5886Z" fill="#263238"/>
<path d="M276.418 223.802H129.859L109.046 99.0779H255.61L276.418 223.802Z" fill="#EAE7FF"/>
<path d="M159.835 175.322C163.199 175.322 165.927 172.379 165.927 168.749C165.927 165.118 163.199 162.175 159.835 162.175C156.471 162.175 153.744 165.118 153.744 168.749C153.744 172.379 156.471 175.322 159.835 175.322Z" fill="#263238"/>
<path d="M207.989 175.322C211.353 175.322 214.08 172.379 214.08 168.749C214.08 165.118 211.353 162.175 207.989 162.175C204.625 162.175 201.897 165.118 201.897 168.749C201.897 172.379 204.625 175.322 207.989 175.322Z" fill="#263238"/>
<path d="M266.741 168.246L266.64 167.728C266.952 167.656 267.259 167.578 267.567 167.49L267.687 168.008C267.36 168.096 267.058 168.174 266.741 168.246Z" fill="#263238"/>
<path d="M269.544 167.412L269.39 166.926C269.99 166.703 270.59 166.459 271.171 166.195L271.358 166.672C270.768 166.941 270.158 167.19 269.544 167.412ZM273.12 165.76L272.904 165.304C273.466 164.988 274.027 164.646 274.56 164.268L274.81 164.708C274.262 165.118 273.691 165.465 273.12 165.76ZM276.422 163.569L276.139 163.149C276.658 162.74 277.157 162.31 277.627 161.87L277.944 162.258C277.44 162.73 276.96 163.17 276.418 163.59L276.422 163.569ZM279.35 160.813L279 160.456C279.442 159.938 279.859 159.42 280.243 158.902L280.622 159.218C280.224 159.787 279.797 160.321 279.36 160.834L279.35 160.813ZM281.726 157.498L281.318 157.223C281.65 156.645 281.945 156.042 282.202 155.421L282.643 155.633C282.372 156.281 282.064 156.911 281.722 157.519L281.726 157.498ZM283.315 153.654L282.835 153.509C283.011 152.859 283.14 152.196 283.224 151.525L283.704 151.593C283.624 152.297 283.493 152.993 283.31 153.675L283.315 153.654ZM283.848 149.51H283.368V149.36C283.368 148.733 283.334 148.096 283.277 147.469L283.757 147.418C283.82 148.063 283.852 148.711 283.853 149.36L283.848 149.51ZM282.984 145.454C282.855 144.787 282.695 144.126 282.504 143.476L282.984 143.32C283.181 143.994 283.349 144.677 283.464 145.346L282.984 145.454ZM281.846 141.554C281.616 140.943 281.366 140.316 281.059 139.684L281.491 139.451C281.784 140.093 282.053 140.735 282.288 141.357L281.846 141.554ZM280.166 137.861C279.869 137.296 279.542 136.7 279.206 136.089L279.614 135.814C279.965 136.431 280.296 137.032 280.574 137.607L280.166 137.861ZM278.16 134.343C277.81 133.774 277.454 133.199 277.09 132.624L277.488 132.333C277.853 132.908 278.208 133.483 278.558 134.064L278.16 134.343ZM276 130.914C275.64 130.344 275.275 129.769 274.92 129.2L275.318 128.909C275.674 129.479 276.034 130.054 276.394 130.619L276 130.914ZM273.854 127.464C273.504 126.884 273.163 126.294 272.827 125.703L273.235 125.434C273.571 126.024 273.912 126.604 274.258 127.185L273.854 127.464ZM271.853 123.906C271.526 123.279 271.224 122.657 270.95 122.062L271.382 121.828C271.651 122.419 271.954 123.03 272.27 123.652L271.853 123.906ZM270.149 120.176C269.894 119.529 269.669 118.871 269.458 118.228L269.938 118.063C270.139 118.689 270.365 119.337 270.614 119.974L270.149 120.176ZM268.901 116.224C268.742 115.55 268.603 114.861 268.498 114.152L268.978 114.069C269.083 114.732 269.213 115.405 269.371 116.068L268.901 116.224ZM268.258 112.08C268.21 111.443 268.186 110.8 268.186 110.158V109.987H268.666V110.153C268.666 110.779 268.666 111.411 268.738 112.033L268.258 112.08ZM268.738 107.936L268.258 107.884C268.258 107.744 268.282 107.599 268.296 107.449C268.354 106.894 268.426 106.34 268.512 105.812L268.992 105.9C268.91 106.418 268.838 106.962 268.781 107.506C268.8 107.666 268.8 107.806 268.762 107.951L268.738 107.936ZM269.405 103.906L268.925 103.766C269.102 103.082 269.309 102.414 269.539 101.777L269.986 101.963C269.767 102.604 269.582 103.258 269.429 103.921L269.405 103.906ZM293.323 100.886C293.054 100.886 292.776 100.844 292.502 100.803C292.128 100.746 291.754 100.678 291.384 100.601L291.48 100.083C291.835 100.155 292.205 100.223 292.57 100.28C292.829 100.316 293.093 100.342 293.347 100.357L293.323 100.886ZM295.296 100.725L295.195 100.207C295.798 100.073 296.375 99.8313 296.904 99.4923L297.154 99.9326C296.588 100.31 295.969 100.583 295.32 100.741L295.296 100.725ZM270.787 100.109L270.36 99.8652C270.666 99.2474 271.004 98.649 271.373 98.0729L271.766 98.3682C271.416 98.9323 271.097 99.5187 270.811 100.124L270.787 100.109ZM289.507 100.078C288.888 99.8655 288.279 99.6182 287.683 99.3369L287.88 98.8603C288.457 99.137 289.048 99.3774 289.651 99.5803L289.507 100.078ZM298.627 98.4614L298.229 98.1714C298.571 97.6363 298.773 97.0119 298.814 96.3635L299.294 96.3998C299.254 97.1429 299.028 97.8604 298.642 98.477L298.627 98.4614ZM285.955 98.3837C285.393 98.0314 284.85 97.6457 284.328 97.2286L284.611 96.8142C285.119 97.2187 285.648 97.5923 286.195 97.9331L285.955 98.3837ZM272.947 96.7676L272.592 96.4205C273.027 95.8989 273.49 95.4059 273.979 94.9442L274.296 95.3327C273.825 95.7874 273.379 96.2717 272.962 96.7831L272.947 96.7676ZM282.83 95.8922C282.352 95.4169 281.899 94.9137 281.472 94.3848L281.832 94.0429C282.247 94.5566 282.688 95.046 283.152 95.5088L282.83 95.8922ZM298.454 94.4884C298.179 93.8964 297.799 93.3684 297.336 92.9344L297.653 92.5459C298.163 93.022 298.582 93.6008 298.886 94.2501L298.454 94.4884ZM275.789 94.0792L275.515 93.6544C276.052 93.2588 276.608 92.8939 277.181 92.5614L277.406 93.0173C276.855 93.3461 276.32 93.7057 275.803 94.0947L275.789 94.0792ZM280.272 92.7324C280.09 92.4526 279.912 92.1677 279.744 91.8725L279.12 92.1367L278.938 91.6601L279.49 91.4218C279.403 91.2664 279.317 91.111 279.235 90.9556L279.653 90.7018C279.749 90.8831 279.845 91.0644 279.946 91.2198C280.214 91.1162 280.488 91.0178 280.766 90.9245L280.906 91.4425C280.67 91.5202 280.426 91.6031 280.205 91.6912C280.354 91.945 280.507 92.2092 280.685 92.4319L280.272 92.7324ZM295.79 91.8414C295.326 91.5916 294.845 91.3804 294.35 91.2094L294.034 91.1007L294.173 90.5827L294.499 90.6966C295.013 90.8735 295.514 91.0935 295.997 91.3545L295.79 91.8414ZM282.744 90.9142L282.643 90.3962C283.262 90.246 283.906 90.1216 284.563 90.0232L284.635 90.5412C284.002 90.65 283.373 90.7795 282.758 90.9297L282.744 90.9142ZM292.2 90.6345C291.6 90.5205 290.966 90.4324 290.318 90.3703L290.357 89.8523C291.024 89.9144 291.672 90.0025 292.277 90.1216L292.2 90.6345ZM286.512 90.334L286.478 89.816C287.05 89.7798 287.621 89.759 288.187 89.759H288.422V90.277H288.192C287.65 90.2926 287.083 90.3081 286.526 90.3496L286.512 90.334ZM278.4 89.096C278.141 88.464 277.92 87.8062 277.704 87.138L278.184 86.9774C278.386 87.6301 278.611 88.2724 278.861 88.8888L278.4 89.096ZM277.186 85.1178C277.042 84.4495 276.922 83.7554 276.83 83.0458L277.31 82.9732C277.402 83.657 277.517 84.3356 277.656 84.9934L277.186 85.1178ZM276.648 80.9738C276.624 80.5076 276.61 80.031 276.61 79.5544C276.61 79.3317 276.61 79.1038 276.61 78.881H277.09C277.09 79.1038 277.09 79.3213 277.09 79.5441C277.09 80.0103 277.09 80.4817 277.123 80.9323L276.648 80.9738ZM277.219 76.8298L276.739 76.778C276.806 76.0942 276.898 75.3949 277.008 74.706L277.488 74.794C277.358 75.483 277.267 76.146 277.205 76.8401L277.219 76.8298ZM277.877 72.7842L277.397 72.6599C277.55 71.9916 277.728 71.3182 277.925 70.6448L278.405 70.8054C278.189 71.484 278.011 72.1419 277.862 72.7945L277.877 72.7842ZM279.029 68.8629L278.582 68.6764C278.818 68.0289 279.062 67.3814 279.355 66.7547L279.787 66.9826C279.499 67.6042 279.245 68.2361 279.014 68.894L279.029 68.8629ZM280.68 65.1696L280.262 64.9054C280.589 64.3097 280.939 63.714 281.304 63.1442L281.698 63.4395C281.323 64.0093 280.982 64.5894 280.666 65.1799L280.68 65.1696ZM282.845 61.7974L282.47 61.4711C282.874 60.9531 283.306 60.404 283.752 59.9171L284.098 60.2745C283.646 60.7614 283.224 61.2794 282.83 61.8078L282.845 61.7974ZM285.456 58.8137L285.134 58.4304C285.614 57.9694 286.094 57.5135 286.608 57.0732L286.906 57.4825C286.392 57.9228 285.902 58.3734 285.442 58.8241L285.456 58.8137ZM288.437 56.2548L288.163 55.8249C288.686 55.4364 289.234 55.053 289.79 54.6904L290.035 55.1307C289.478 55.4985 288.96 55.8767 288.422 56.2652L288.437 56.2548ZM291.696 54.1155L291.47 53.6596C292.037 53.3333 292.622 53.0225 293.208 52.7324L293.41 53.2038C292.8 53.499 292.238 53.8098 291.682 54.1258L291.696 54.1155ZM295.166 52.3957L294.989 51.9088C295.594 51.655 296.203 51.3908 296.808 51.1991L296.962 51.7171C296.352 51.914 295.747 52.1522 295.152 52.4061L295.166 52.3957Z" fill="#263238"/>
<path d="M298.868 51.0852L298.748 50.5672C299.343 50.4014 299.708 50.3289 299.708 50.3289L299.794 50.8469C299.794 50.8469 299.448 50.9246 298.868 51.0852Z" fill="#263238"/>
<path d="M150.869 49.3758C150.639 51.755 149.801 54.0185 148.448 55.9136C147.095 57.8087 145.281 59.2609 143.208 60.1082C141.135 60.9554 138.885 61.1644 136.708 60.7117C134.532 60.259 132.514 59.1625 130.882 57.5446L124.896 58.4926L127.891 52.9085C127.206 51.0916 126.914 49.1301 127.037 47.173C127.159 45.2159 127.694 43.3147 128.599 41.6139C129.505 39.913 130.757 38.4572 132.262 37.3571C133.767 36.2569 135.484 35.5413 137.284 35.2647C139.083 34.988 140.918 35.1575 142.647 35.7604C144.377 36.3632 145.957 37.3836 147.266 38.7439C148.576 40.1042 149.581 41.7687 150.205 43.6109C150.829 45.4531 151.056 47.4247 150.869 49.3758Z" fill="white"/>
<path d="M150.869 49.3758C150.644 51.7538 149.813 54.0182 148.469 55.9181C147.812 56.879 147.02 57.7232 146.122 58.42C145.243 59.143 144.273 59.7273 143.242 60.1553C142.21 60.5939 141.125 60.873 140.021 60.9841C139.469 61.0376 138.914 61.0497 138.36 61.0204C137.805 61.005 137.251 60.9426 136.704 60.8339C134.498 60.3959 132.449 59.3036 130.786 57.6793L130.925 57.7259L124.949 58.7153L124.512 58.7878L124.733 58.3734L127.709 52.779V53.0018C127.007 51.1513 126.708 49.1513 126.836 47.1564C126.965 45.1615 127.516 43.2252 128.448 41.497C129.379 39.7742 130.659 38.3009 132.192 37.1872C133.723 36.0883 135.464 35.3777 137.285 35.1085C139.107 34.8394 140.961 35.0188 142.709 35.6332C144.438 36.2682 146.015 37.3124 147.322 38.6894C148.626 40.063 149.624 41.7392 150.238 43.5908C150.853 45.4424 151.069 47.4208 150.869 49.3758ZM150.869 49.3758C151.063 47.4304 150.84 45.463 150.218 43.6253C149.595 41.7877 148.589 40.129 147.279 38.7774C145.968 37.4258 144.386 36.4174 142.657 35.83C140.928 35.2426 139.096 35.092 137.304 35.3898C135.53 35.6731 133.84 36.3927 132.365 37.4928C130.902 38.6017 129.681 40.0404 128.784 41.7094C127.902 43.382 127.382 45.2486 127.263 47.1691C127.146 49.1026 127.434 51.0396 128.107 52.836L128.151 52.95L128.093 53.0587L125.079 58.6324L124.867 58.2905L130.858 57.384H130.939L130.997 57.441C132.598 59.0494 134.583 60.1453 136.728 60.606C137.263 60.7236 137.805 60.7946 138.351 60.8184C138.896 60.8598 139.442 60.8598 139.987 60.8184C141.08 60.7234 142.156 60.4671 143.184 60.0569C144.215 59.652 145.185 59.0865 146.064 58.3786C146.959 57.6874 147.752 56.8544 148.416 55.9077C149.778 54.017 150.627 51.7559 150.869 49.3758Z" fill="#263238"/>
<path d="M133.124 54.0533C133.114 53.8818 133.138 53.7101 133.193 53.5488C133.248 53.3876 133.333 53.2402 133.442 53.1158C133.552 52.9915 133.684 52.8928 133.831 52.826C133.978 52.7591 134.136 52.7255 134.295 52.7272C134.621 52.7272 134.933 52.8669 135.164 53.1156C135.394 53.3643 135.524 53.7016 135.524 54.0533C135.524 54.405 135.394 54.7423 135.164 54.991C134.933 55.2397 134.621 55.3794 134.295 55.3794C134.136 55.3811 133.978 55.3475 133.831 55.2806C133.684 55.2138 133.552 55.1151 133.442 54.9908C133.333 54.8664 133.248 54.719 133.193 54.5578C133.138 54.3965 133.114 54.2248 133.124 54.0533ZM133.604 50.9919L133.325 40.7148H135.245L134.967 50.9919H133.604Z" fill="#BEB5FF"/>
<path d="M137.688 54.0533C137.679 53.8822 137.702 53.711 137.757 53.5501C137.811 53.3891 137.896 53.242 138.005 53.1177C138.114 52.9935 138.246 52.8947 138.392 52.8275C138.538 52.7604 138.696 52.7262 138.854 52.7272C139.18 52.7272 139.493 52.8669 139.723 53.1156C139.954 53.3643 140.083 53.7016 140.083 54.0533C140.083 54.405 139.954 54.7423 139.723 54.991C139.493 55.2397 139.18 55.3794 138.854 55.3794C138.696 55.3804 138.538 55.3462 138.392 55.2791C138.246 55.2119 138.114 55.1131 138.005 54.9889C137.896 54.8646 137.811 54.7174 137.757 54.5565C137.702 54.3956 137.679 54.2244 137.688 54.0533ZM138.168 50.9919L137.904 40.7148H139.824L139.546 50.9919H138.168Z" fill="#BEB5FF"/>
<path d="M142.248 54.0533C142.239 53.8818 142.262 53.7101 142.317 53.5488C142.372 53.3876 142.457 53.2402 142.567 53.1158C142.677 52.9915 142.809 52.8928 142.956 52.826C143.102 52.7591 143.26 52.7255 143.419 52.7272C143.745 52.7272 144.058 52.8669 144.288 53.1156C144.519 53.3643 144.648 53.7016 144.648 54.0533C144.648 54.405 144.519 54.7423 144.288 54.991C144.058 55.2397 143.745 55.3794 143.419 55.3794C143.26 55.3811 143.102 55.3475 142.956 55.2806C142.809 55.2138 142.677 55.1151 142.567 54.9908C142.457 54.8664 142.372 54.719 142.317 54.5578C142.262 54.3965 142.239 54.2248 142.248 54.0533ZM142.728 50.9919L142.45 40.7148H144.37L144.096 50.9919H142.728Z" fill="#BEB5FF"/>
<circle cx="157.5" cy="166.5" r="2.5" fill="white"/>
<circle cx="157.5" cy="166.5" r="2.5" fill="white"/>
<circle cx="157.5" cy="166.5" r="2.5" fill="white"/>
<circle cx="157.5" cy="166.5" r="2.5" fill="white"/>
<circle cx="205.5" cy="166.5" r="2.5" fill="white"/>
<circle cx="205.5" cy="166.5" r="2.5" fill="white"/>
<circle cx="205.5" cy="166.5" r="2.5" fill="white"/>
<circle cx="205.5" cy="166.5" r="2.5" fill="white"/>
<rect x="225" y="108" width="19" height="4" rx="2" fill="white" fill-opacity="0.63"/>
<rect x="244.953" y="115.94" width="17.496" height="3.60048" rx="1.80024" transform="rotate(78.4841 244.953 115.94)" fill="white" fill-opacity="0.63"/>
</svg>
